<?xml version="1.0" encoding="UTF-8" standalone="no"?>
<!DOCTYPE svg PUBLIC "-//W3C//DTD SVG 1.1//EN"
 "http://www.w3.org/Graphics/SVG/1.1/DTD/svg11.dtd">
<!-- Generated by graphviz version 13.1.2 (20250808.2320)
 -->
<!-- Title: G Pages: 1 -->
<svg width="94pt" height="44pt"
 viewBox="0.00 0.00 94.00 44.00" xmlns="http://www.w3.org/2000/svg" xmlns:xlink="http://www.w3.org/1999/xlink">
<g id="graph0" class="graph" transform="scale(1 1) rotate(0) translate(4 40)">
<title>G</title>
<polygon fill="white" stroke="none" points="-4,4 -4,-40 89.75,-40 89.75,4 -4,4"/>
<!-- Demo&#45;Flow -->
<g id="node1" class="node">
<title>Demo&#45;Flow</title>
<path fill="none" stroke="black" d="M73.75,-36C73.75,-36 12,-36 12,-36 6,-36 0,-30 0,-24 0,-24 0,-12 0,-12 0,-6 6,0 12,0 12,0 73.75,0 73.75,0 79.75,0 85.75,-6 85.75,-12 85.75,-12 85.75,-24 85.75,-24 85.75,-30 79.75,-36 73.75,-36"/>
<text xml:space="preserve" text-anchor="middle" x="42.88" y="-13.32" font-family="Times New Roman" font-size="14.00">Demo Flow</text>
</g>
</g>
</svg>
